<svg width="249" height="126" viewBox="0 0 249 126" fill="none" xmlns="http://www.w3.org/2000/svg">
<g clip-path="url(#clip0_1954_24096)">
<path d="M28.1875 56.7915L30.25 60.9165C30.3646 61.2603 30.7083 61.4894 31.0521 61.4894L35.6354 62.1769C36.5521 62.2915 36.8958 63.3228 36.2083 64.0103L32.8854 67.2186C32.6562 67.4478 32.5417 67.7915 32.5417 68.1353L33.3437 72.604C33.4583 73.4061 32.5417 74.0936 31.8542 73.7499L27.8437 71.5728C27.5 71.4582 27.1562 71.4582 26.8125 71.5728L22.8021 73.7499C22 74.2082 21.0833 73.5207 21.3125 72.604L22.1146 68.1353C22.2292 67.7915 22.1146 67.4478 21.7708 67.2186L18.3333 63.8957C17.7604 63.3228 18.1042 62.1769 18.9062 62.0624L23.4896 61.3749C23.8333 61.3749 24.1771 61.1457 24.2917 60.8019L26.3542 56.6769C26.6979 55.9894 27.8437 55.9894 28.1875 56.7915Z" fill="white" stroke="#16C9D1" stroke-width="2.29167" stroke-miterlimit="10" stroke-linecap="round" stroke-linejoin="round"/>
<path d="M27.2705 50.6038V49.458" stroke="#16C9D1" stroke-width="2.29167" stroke-miterlimit="10" stroke-linecap="round" stroke-linejoin="round"/>
<path d="M27.2705 81.5413V80.3955" stroke="#16C9D1" stroke-width="2.29167" stroke-miterlimit="10" stroke-linecap="round" stroke-linejoin="round"/>
<path d="M12.3753 65.5H11.2295" stroke="#16C9D1" stroke-width="2.29167" stroke-miterlimit="10" stroke-linecap="round" stroke-linejoin="round"/>
<path d="M43.3128 65.5H42.167" stroke="#16C9D1" stroke-width="2.29167" stroke-miterlimit="10" stroke-linecap="round" stroke-linejoin="round"/>
<path d="M16.7298 76.041L15.9277 76.8431" stroke="#16C9D1" stroke-width="2.29167" stroke-miterlimit="10" stroke-linecap="round" stroke-linejoin="round"/>
<path d="M38.6146 54.1562L37.8125 54.9583" stroke="#16C9D1" stroke-width="2.29167" stroke-miterlimit="10" stroke-linecap="round" stroke-linejoin="round"/>
<path d="M37.8125 76.041L38.6146 76.8431" stroke="#16C9D1" stroke-width="2.29167" stroke-miterlimit="10" stroke-linecap="round" stroke-linejoin="round"/>
<path d="M15.9277 54.1562L16.7298 54.9583" stroke="#16C9D1" stroke-width="2.29167" stroke-miterlimit="10" stroke-linecap="round" stroke-linejoin="round"/>
<path d="M27.2705 43.7292C39.3018 43.7292 49.0413 53.4688 49.0413 65.5C49.0413 77.5312 39.3018 87.2708 27.2705 87.2708C15.2393 87.2708 5.49967 77.5312 5.49967 65.5C5.49967 53.4688 15.3538 43.7292 27.2705 43.7292ZM27.2705 41.4375C13.9788 41.4375 3.20801 52.2083 3.20801 65.5C3.20801 78.7917 13.9788 89.5625 27.2705 89.5625C40.5622 89.5625 51.333 78.7917 51.333 65.5C51.333 52.2083 40.5622 41.4375 27.2705 41.4375Z" fill="#006270"/>
</g>
<path d="M59.6667 55.3281C59.2956 55.5122 59.1441 55.9623 59.3281 56.3333C59.5122 56.7044 59.9623 56.8559 60.3333 56.6719L59.6667 55.3281ZM125.211 24.2394C125.343 23.8468 125.132 23.4214 124.739 23.2892L118.342 21.1348C117.95 21.0026 117.524 21.2137 117.392 21.6062C117.26 21.9988 117.471 22.4242 117.864 22.5564L123.55 24.4714L121.635 30.1576C121.503 30.5501 121.714 30.9755 122.106 31.1077C122.499 31.2399 122.924 31.0289 123.056 30.6363L125.211 24.2394ZM60.3333 56.6719L124.833 24.6719L124.167 23.3281L59.6667 55.3281L60.3333 56.6719Z" fill="#29BDBE"/>
<path d="M60.5097 77.6152C60.1214 77.4711 59.6898 77.669 59.5456 78.0573C59.4015 78.4457 59.5994 78.8773 59.9877 79.0215L60.5097 77.6152ZM128.062 104.057C128.439 103.885 128.604 103.439 128.431 103.063L125.618 96.9272C125.445 96.5507 125 96.3855 124.624 96.5581C124.247 96.7308 124.082 97.176 124.254 97.5525L126.755 103.006L121.301 105.507C120.925 105.68 120.76 106.125 120.932 106.502C121.105 106.878 121.55 107.043 121.927 106.871L128.062 104.057ZM59.9877 79.0215L127.489 104.079L128.011 102.672L60.5097 77.6152L59.9877 79.0215Z" fill="#29BDBE"/>
<g clip-path="url(#clip1_1954_24096)">
<path d="M163.667 4.16699C163.833 4.16699 164 4.16699 164.167 4.33366L177.167 11.8337C177.5 12.0003 177.667 12.3337 177.667 12.5003V27.5003C177.667 27.8337 177.5 28.0003 177.167 28.167L164.167 35.667C164 35.667 163.833 35.8337 163.667 35.8337C163.5 35.8337 163.333 35.8337 163.167 35.667L150.167 28.167C149.833 28.0003 149.667 27.667 149.667 27.5003V12.5003C149.667 12.167 149.833 12.0003 150.167 11.8337L163.167 4.33366C163.5 4.16699 163.667 4.16699 163.667 4.16699ZM163.667 1.66699C163.167 1.66699 162.5 1.83366 162 2.16699L149.167 9.66699C148.167 10.3337 147.5 11.3337 147.5 12.5003V27.5003C147.5 28.667 148.167 29.8337 149.167 30.3337L162.167 37.8337C162.667 38.167 163.333 38.3337 163.833 38.3337C164.333 38.3337 165 38.167 165.5 37.8337L178.5 30.3337C179.5 29.667 180.167 28.667 180.167 27.5003V12.5003C180.167 11.3337 179.5 10.167 178.5 9.66699L165.5 2.16699C164.833 1.83366 164.333 1.66699 163.667 1.66699Z" fill="#006170"/>
<path d="M149 11.5L163.667 19.8333L178.167 11.6667" stroke="#006170" stroke-width="2.5" stroke-miterlimit="10" stroke-linecap="round" stroke-linejoin="round"/>
<path d="M163.667 37.333V19.833" stroke="#006170" stroke-width="2.5" stroke-miterlimit="10" stroke-linecap="round" stroke-linejoin="round"/>
</g>
<path d="M151 92.8889V120.967C151 122.569 152.868 123.443 154.098 122.418L155.342 121.382C156.092 120.757 157.196 120.807 157.886 121.498L160.053 123.664C160.791 124.402 161.987 124.402 162.725 123.664L164.775 121.613C165.513 120.876 166.709 120.876 167.447 121.613L169.498 123.664C170.235 124.402 171.431 124.402 172.169 123.664L174.22 121.613C174.958 120.876 176.154 120.876 176.891 121.613L177.053 121.775C178.243 122.965 180.278 122.123 180.278 120.44V92.8889C180.278 91.8457 179.432 91 178.389 91H152.889C151.846 91 151 91.8457 151 92.8889Z" stroke="#006170" stroke-width="2.5" stroke-linecap="round" stroke-linejoin="round"/>
<path d="M171.778 100.444L160.444 111.778" stroke="#006170" stroke-width="3" stroke-linecap="round" stroke-linejoin="round"/>
<circle cx="159.863" cy="99.8631" r="1.24206" fill="#006170" stroke="#006170" stroke-width="1.24206"/>
<circle cx="173.526" cy="112.283" r="1.24206" fill="#006170" stroke="#006170" stroke-width="1.24206"/>
<path d="M188.233 25V14.8182H191.673C192.472 14.8182 193.125 14.9624 193.632 15.2507C194.143 15.5357 194.52 15.9219 194.766 16.4091C195.011 16.8963 195.134 17.4399 195.134 18.0398C195.134 18.6397 195.011 19.1849 194.766 19.6754C194.524 20.166 194.149 20.5571 193.642 20.8487C193.135 21.1371 192.485 21.2812 191.693 21.2812H189.227V20.1875H191.653C192.2 20.1875 192.639 20.093 192.971 19.9041C193.302 19.7152 193.543 19.46 193.692 19.1385C193.844 18.8137 193.92 18.4474 193.92 18.0398C193.92 17.6321 193.844 17.2675 193.692 16.946C193.543 16.6245 193.301 16.3726 192.966 16.1903C192.631 16.0047 192.187 15.9119 191.634 15.9119H189.466V25H188.233ZM199.068 25.179C198.584 25.179 198.145 25.0878 197.75 24.9055C197.356 24.7199 197.043 24.4531 196.811 24.1051C196.579 23.7538 196.463 23.3295 196.463 22.8324C196.463 22.3949 196.549 22.0402 196.721 21.7685C196.893 21.4934 197.124 21.2779 197.412 21.1222C197.701 20.9664 198.019 20.8504 198.367 20.7741C198.718 20.6946 199.071 20.6316 199.426 20.5852C199.89 20.5256 200.266 20.4808 200.554 20.451C200.846 20.4179 201.058 20.3632 201.191 20.2869C201.327 20.2107 201.394 20.0781 201.394 19.8892V19.8494C201.394 19.3589 201.26 18.9777 200.992 18.706C200.727 18.4342 200.324 18.2983 199.784 18.2983C199.224 18.2983 198.784 18.4209 198.466 18.6662C198.148 18.9115 197.924 19.1733 197.795 19.4517L196.681 19.054C196.88 18.59 197.145 18.2287 197.477 17.9702C197.812 17.7083 198.176 17.526 198.571 17.4233C198.968 17.3172 199.359 17.2642 199.744 17.2642C199.989 17.2642 200.271 17.294 200.589 17.3537C200.911 17.41 201.22 17.5277 201.519 17.7067C201.82 17.8857 202.071 18.1558 202.269 18.517C202.468 18.8783 202.568 19.3622 202.568 19.9688V25H201.394V23.9659H201.335C201.255 24.1316 201.123 24.3089 200.937 24.4979C200.751 24.6868 200.505 24.8475 200.196 24.9801C199.888 25.1127 199.512 25.179 199.068 25.179ZM199.247 24.125C199.711 24.125 200.102 24.0339 200.42 23.8516C200.742 23.6693 200.983 23.4339 201.146 23.1456C201.312 22.8572 201.394 22.554 201.394 22.2358V21.1619C201.345 21.2216 201.235 21.2763 201.066 21.326C200.901 21.3724 200.708 21.4138 200.49 21.4503C200.274 21.4834 200.064 21.5133 199.858 21.5398C199.656 21.563 199.492 21.5829 199.366 21.5994C199.061 21.6392 198.776 21.7038 198.511 21.7933C198.249 21.8795 198.037 22.0104 197.875 22.1861C197.715 22.3584 197.636 22.5937 197.636 22.892C197.636 23.2997 197.787 23.608 198.088 23.8168C198.393 24.0223 198.779 24.125 199.247 24.125ZM209.779 27.8636V23.8267H209.68C209.594 23.9659 209.471 24.1416 209.312 24.3537C209.153 24.5625 208.926 24.7498 208.631 24.9155C208.336 25.0779 207.943 25.1591 207.453 25.1591C206.816 25.1591 206.255 24.9983 205.767 24.6768C205.28 24.352 204.899 23.8946 204.624 23.3047C204.349 22.7114 204.211 22.0104 204.211 21.2017C204.211 20.3996 204.349 19.7036 204.624 19.1136C204.899 18.5237 205.282 18.0679 205.772 17.7464C206.263 17.425 206.83 17.2642 207.473 17.2642C207.97 17.2642 208.363 17.3471 208.651 17.5128C208.943 17.6752 209.165 17.8608 209.317 18.0696C209.473 18.2751 209.594 18.4441 209.68 18.5767H209.819V17.3636H210.953V27.8636H209.779ZM207.612 24.1051C208.083 24.1051 208.48 23.9825 208.805 23.7372C209.13 23.4886 209.377 23.1456 209.546 22.7081C209.715 22.2673 209.799 21.7585 209.799 21.1818C209.799 20.6117 209.717 20.1129 209.551 19.6854C209.385 19.2545 209.14 18.9197 208.815 18.6811C208.49 18.4392 208.089 18.3182 207.612 18.3182C207.115 18.3182 206.7 18.4458 206.369 18.701C206.041 18.9529 205.794 19.2959 205.628 19.7301C205.466 20.161 205.385 20.6449 205.385 21.1818C205.385 21.7254 205.467 22.2192 205.633 22.6634C205.802 23.1042 206.051 23.4555 206.379 23.7173C206.71 23.9759 207.121 24.1051 207.612 24.1051ZM217.773 21.8778V17.3636H218.946V25H217.773V23.7074H217.693C217.514 24.0952 217.236 24.425 216.858 24.6967C216.48 24.9652 216.003 25.0994 215.426 25.0994C214.949 25.0994 214.525 24.995 214.154 24.7862C213.782 24.5741 213.491 24.2559 213.279 23.8317C213.067 23.4041 212.961 22.8655 212.961 22.2159V17.3636H214.134V22.1364C214.134 22.6932 214.29 23.1373 214.601 23.4688C214.916 23.8002 215.317 23.9659 215.804 23.9659C216.096 23.9659 216.393 23.8913 216.694 23.7422C216.999 23.593 217.254 23.3643 217.46 23.0561C217.669 22.7479 217.773 22.3551 217.773 21.8778ZM224.157 25.1591C223.421 25.1591 222.786 24.9967 222.253 24.6719C221.723 24.3438 221.313 23.8864 221.025 23.2997C220.74 22.7098 220.597 22.0237 220.597 21.2415C220.597 20.4593 220.74 19.7699 221.025 19.1733C221.313 18.5734 221.714 18.1061 222.228 17.7713C222.745 17.4332 223.348 17.2642 224.038 17.2642C224.435 17.2642 224.828 17.3305 225.216 17.4631C225.604 17.5956 225.957 17.8111 226.275 18.1094C226.593 18.4044 226.847 18.7955 227.036 19.2827C227.224 19.7699 227.319 20.3698 227.319 21.0824V21.5795H221.433V20.5653H226.126C226.126 20.1345 226.04 19.75 225.867 19.4119C225.698 19.0739 225.456 18.8071 225.141 18.6115C224.83 18.416 224.462 18.3182 224.038 18.3182C223.57 18.3182 223.166 18.4342 222.825 18.6662C222.487 18.8949 222.226 19.1932 222.044 19.5611C221.862 19.929 221.771 20.3234 221.771 20.7443V21.4205C221.771 21.9972 221.87 22.486 222.069 22.8871C222.271 23.2848 222.551 23.5881 222.909 23.7969C223.267 24.0024 223.683 24.1051 224.157 24.1051C224.465 24.1051 224.744 24.062 224.992 23.9759C225.244 23.8864 225.461 23.7538 225.643 23.5781C225.826 23.3991 225.967 23.1771 226.066 22.9119L227.2 23.2301C227.08 23.6146 226.88 23.9527 226.598 24.2443C226.316 24.5327 225.968 24.758 225.554 24.9205C225.14 25.0795 224.674 25.1591 224.157 25.1591ZM232.285 17.3636V18.358H228.327V17.3636H232.285ZM229.481 15.5341H230.654V22.8125C230.654 23.1439 230.702 23.3925 230.798 23.5582C230.898 23.7206 231.024 23.83 231.176 23.8864C231.332 23.9394 231.496 23.9659 231.668 23.9659C231.798 23.9659 231.904 23.9593 231.986 23.946C232.069 23.9295 232.136 23.9162 232.185 23.9062L232.424 24.9602C232.344 24.9901 232.233 25.0199 232.091 25.0497C231.948 25.0829 231.768 25.0994 231.549 25.0994C231.217 25.0994 230.893 25.0282 230.575 24.8857C230.26 24.7431 229.998 24.526 229.789 24.2344C229.583 23.9427 229.481 23.5748 229.481 23.1307V15.5341ZM237.029 25.1591C236.294 25.1591 235.659 24.9967 235.125 24.6719C234.595 24.3438 234.186 23.8864 233.897 23.2997C233.612 22.7098 233.47 22.0237 233.47 21.2415C233.47 20.4593 233.612 19.7699 233.897 19.1733C234.186 18.5734 234.587 18.1061 235.1 17.7713C235.617 17.4332 236.221 17.2642 236.91 17.2642C237.308 17.2642 237.7 17.3305 238.088 17.4631C238.476 17.5956 238.829 17.8111 239.147 18.1094C239.465 18.4044 239.719 18.7955 239.908 19.2827C240.097 19.7699 240.191 20.3698 240.191 21.0824V21.5795H234.305V20.5653H238.998C238.998 20.1345 238.912 19.75 238.74 19.4119C238.571 19.0739 238.329 18.8071 238.014 18.6115C237.702 18.416 237.334 18.3182 236.91 18.3182C236.443 18.3182 236.038 18.4342 235.697 18.6662C235.359 18.8949 235.099 19.1932 234.916 19.5611C234.734 19.929 234.643 20.3234 234.643 20.7443V21.4205C234.643 21.9972 234.742 22.486 234.941 22.8871C235.143 23.2848 235.423 23.5881 235.781 23.7969C236.139 24.0024 236.555 24.1051 237.029 24.1051C237.338 24.1051 237.616 24.062 237.865 23.9759C238.116 23.8864 238.334 23.7538 238.516 23.5781C238.698 23.3991 238.839 23.1771 238.938 22.9119L240.072 23.2301C239.953 23.6146 239.752 23.9527 239.47 24.2443C239.189 24.5327 238.841 24.758 238.426 24.9205C238.012 25.0795 237.546 25.1591 237.029 25.1591ZM247.245 19.0739L246.191 19.3722C246.125 19.1965 246.027 19.0258 245.898 18.8601C245.772 18.6911 245.6 18.5518 245.381 18.4425C245.162 18.3331 244.882 18.2784 244.541 18.2784C244.073 18.2784 243.684 18.3861 243.372 18.6016C243.064 18.8137 242.91 19.0838 242.91 19.4119C242.91 19.7036 243.016 19.9339 243.228 20.103C243.44 20.272 243.772 20.4129 244.222 20.5256L245.356 20.804C246.039 20.9697 246.547 21.2232 246.882 21.5646C247.217 21.9027 247.384 22.3385 247.384 22.8722C247.384 23.3097 247.258 23.7008 247.007 24.0455C246.758 24.3902 246.41 24.6619 245.962 24.8608C245.515 25.0597 244.995 25.1591 244.401 25.1591C243.623 25.1591 242.978 24.9901 242.467 24.652C241.957 24.3139 241.634 23.8201 241.498 23.1705L242.612 22.892C242.718 23.303 242.918 23.6113 243.213 23.8168C243.511 24.0223 243.901 24.125 244.382 24.125C244.928 24.125 245.363 24.009 245.684 23.777C246.009 23.5417 246.171 23.2599 246.171 22.9318C246.171 22.6667 246.078 22.4446 245.893 22.2656C245.707 22.0833 245.422 21.9474 245.038 21.858L243.765 21.5597C243.066 21.3939 242.552 21.1371 242.224 20.7891C241.899 20.4377 241.737 19.9986 241.737 19.4716C241.737 19.0407 241.858 18.6596 242.1 18.3281C242.345 17.9967 242.678 17.7365 243.099 17.5476C243.523 17.3587 244.004 17.2642 244.541 17.2642C245.296 17.2642 245.89 17.4299 246.32 17.7614C246.755 18.0928 247.063 18.5303 247.245 19.0739Z" fill="#16C9D1"/>
<path d="M196.426 106H195.193C195.12 105.645 194.993 105.334 194.81 105.065C194.631 104.797 194.413 104.571 194.154 104.389C193.899 104.204 193.616 104.064 193.304 103.972C192.992 103.879 192.668 103.832 192.33 103.832C191.713 103.832 191.155 103.988 190.654 104.3C190.157 104.611 189.761 105.07 189.466 105.677C189.174 106.283 189.028 107.027 189.028 107.909C189.028 108.791 189.174 109.535 189.466 110.141C189.761 110.748 190.157 111.207 190.654 111.518C191.155 111.83 191.713 111.986 192.33 111.986C192.668 111.986 192.992 111.939 193.304 111.847C193.616 111.754 193.899 111.616 194.154 111.434C194.413 111.248 194.631 111.021 194.81 110.753C194.993 110.481 195.12 110.17 195.193 109.818H196.426C196.333 110.339 196.164 110.804 195.919 111.215C195.674 111.626 195.369 111.976 195.004 112.264C194.64 112.549 194.23 112.766 193.776 112.915C193.326 113.065 192.843 113.139 192.33 113.139C191.461 113.139 190.689 112.927 190.013 112.503C189.337 112.079 188.805 111.475 188.417 110.693C188.029 109.911 187.835 108.983 187.835 107.909C187.835 106.835 188.029 105.907 188.417 105.125C188.805 104.343 189.337 103.74 190.013 103.315C190.689 102.891 191.461 102.679 192.33 102.679C192.843 102.679 193.326 102.754 193.776 102.903C194.23 103.052 194.64 103.271 195.004 103.559C195.369 103.844 195.674 104.192 195.919 104.603C196.164 105.011 196.333 105.476 196.426 106ZM202.932 109.878V105.364H204.105V113H202.932V111.707H202.852C202.673 112.095 202.395 112.425 202.017 112.697C201.639 112.965 201.162 113.099 200.585 113.099C200.108 113.099 199.684 112.995 199.313 112.786C198.941 112.574 198.65 112.256 198.438 111.832C198.225 111.404 198.119 110.866 198.119 110.216V105.364H199.293V110.136C199.293 110.693 199.448 111.137 199.76 111.469C200.075 111.8 200.476 111.966 200.963 111.966C201.255 111.966 201.551 111.891 201.853 111.742C202.158 111.593 202.413 111.364 202.619 111.056C202.828 110.748 202.932 110.355 202.932 109.878ZM206.114 115.864V105.364H207.248V106.577H207.387C207.473 106.444 207.592 106.275 207.745 106.07C207.901 105.861 208.123 105.675 208.411 105.513C208.703 105.347 209.097 105.264 209.594 105.264C210.237 105.264 210.804 105.425 211.295 105.746C211.785 106.068 212.168 106.524 212.443 107.114C212.718 107.704 212.856 108.4 212.856 109.202C212.856 110.01 212.718 110.711 212.443 111.305C212.168 111.895 211.787 112.352 211.3 112.677C210.812 112.998 210.251 113.159 209.614 113.159C209.124 113.159 208.731 113.078 208.436 112.915C208.141 112.75 207.914 112.562 207.755 112.354C207.596 112.142 207.473 111.966 207.387 111.827H207.287V115.864H206.114ZM207.268 109.182C207.268 109.759 207.352 110.267 207.521 110.708C207.69 111.146 207.937 111.489 208.262 111.737C208.587 111.982 208.984 112.105 209.455 112.105C209.946 112.105 210.355 111.976 210.683 111.717C211.015 111.455 211.263 111.104 211.429 110.663C211.598 110.219 211.682 109.725 211.682 109.182C211.682 108.645 211.599 108.161 211.434 107.73C211.271 107.296 211.024 106.953 210.693 106.701C210.365 106.446 209.952 106.318 209.455 106.318C208.978 106.318 208.577 106.439 208.252 106.681C207.927 106.92 207.682 107.254 207.516 107.685C207.35 108.113 207.268 108.612 207.268 109.182ZM217.608 113.159C216.918 113.159 216.313 112.995 215.793 112.667C215.276 112.339 214.872 111.88 214.58 111.29C214.292 110.7 214.147 110.01 214.147 109.222C214.147 108.426 214.292 107.732 214.58 107.138C214.872 106.545 215.276 106.085 215.793 105.756C216.313 105.428 216.918 105.264 217.608 105.264C218.297 105.264 218.9 105.428 219.417 105.756C219.938 106.085 220.342 106.545 220.63 107.138C220.922 107.732 221.068 108.426 221.068 109.222C221.068 110.01 220.922 110.7 220.63 111.29C220.342 111.88 219.938 112.339 219.417 112.667C218.9 112.995 218.297 113.159 217.608 113.159ZM217.608 112.105C218.131 112.105 218.562 111.971 218.9 111.702C219.238 111.434 219.489 111.081 219.651 110.643C219.813 110.206 219.895 109.732 219.895 109.222C219.895 108.711 219.813 108.236 219.651 107.795C219.489 107.354 219.238 106.998 218.9 106.726C218.562 106.454 218.131 106.318 217.608 106.318C217.084 106.318 216.653 106.454 216.315 106.726C215.977 106.998 215.727 107.354 215.564 107.795C215.402 108.236 215.321 108.711 215.321 109.222C215.321 109.732 215.402 110.206 215.564 110.643C215.727 111.081 215.977 111.434 216.315 111.702C216.653 111.971 217.084 112.105 217.608 112.105ZM223.892 108.406V113H222.719V105.364H223.852V106.557H223.952C224.131 106.169 224.403 105.857 224.767 105.622C225.132 105.384 225.602 105.264 226.179 105.264C226.696 105.264 227.149 105.37 227.536 105.582C227.924 105.791 228.226 106.109 228.441 106.537C228.657 106.961 228.764 107.498 228.764 108.148V113H227.591V108.227C227.591 107.627 227.435 107.16 227.124 106.825C226.812 106.487 226.385 106.318 225.841 106.318C225.467 106.318 225.132 106.399 224.837 106.562C224.545 106.724 224.315 106.961 224.146 107.273C223.977 107.584 223.892 107.962 223.892 108.406ZM233.97 113.159C233.234 113.159 232.6 112.997 232.066 112.672C231.536 112.344 231.126 111.886 230.838 111.3C230.553 110.71 230.41 110.024 230.41 109.241C230.41 108.459 230.553 107.77 230.838 107.173C231.126 106.573 231.527 106.106 232.041 105.771C232.558 105.433 233.161 105.264 233.851 105.264C234.249 105.264 234.641 105.33 235.029 105.463C235.417 105.596 235.77 105.811 236.088 106.109C236.406 106.404 236.66 106.795 236.849 107.283C237.038 107.77 237.132 108.37 237.132 109.082V109.58H231.246V108.565H235.939C235.939 108.134 235.853 107.75 235.68 107.412C235.511 107.074 235.269 106.807 234.954 106.612C234.643 106.416 234.275 106.318 233.851 106.318C233.383 106.318 232.979 106.434 232.638 106.666C232.3 106.895 232.039 107.193 231.857 107.561C231.675 107.929 231.584 108.323 231.584 108.744V109.42C231.584 109.997 231.683 110.486 231.882 110.887C232.084 111.285 232.364 111.588 232.722 111.797C233.08 112.002 233.496 112.105 233.97 112.105C234.278 112.105 234.557 112.062 234.805 111.976C235.057 111.886 235.274 111.754 235.457 111.578C235.639 111.399 235.78 111.177 235.879 110.912L237.013 111.23C236.893 111.615 236.693 111.953 236.411 112.244C236.129 112.533 235.781 112.758 235.367 112.92C234.953 113.08 234.487 113.159 233.97 113.159ZM244.186 107.074L243.132 107.372C243.066 107.196 242.968 107.026 242.839 106.86C242.713 106.691 242.54 106.552 242.322 106.442C242.103 106.333 241.823 106.278 241.481 106.278C241.014 106.278 240.625 106.386 240.313 106.602C240.005 106.814 239.851 107.084 239.851 107.412C239.851 107.704 239.957 107.934 240.169 108.103C240.381 108.272 240.712 108.413 241.163 108.526L242.297 108.804C242.979 108.97 243.488 109.223 243.823 109.565C244.158 109.903 244.325 110.339 244.325 110.872C244.325 111.31 244.199 111.701 243.947 112.045C243.699 112.39 243.351 112.662 242.903 112.861C242.456 113.06 241.935 113.159 241.342 113.159C240.563 113.159 239.919 112.99 239.408 112.652C238.898 112.314 238.575 111.82 238.439 111.17L239.552 110.892C239.658 111.303 239.859 111.611 240.154 111.817C240.452 112.022 240.842 112.125 241.322 112.125C241.869 112.125 242.303 112.009 242.625 111.777C242.95 111.542 243.112 111.26 243.112 110.932C243.112 110.667 243.019 110.445 242.834 110.266C242.648 110.083 242.363 109.947 241.979 109.858L240.706 109.56C240.006 109.394 239.493 109.137 239.165 108.789C238.84 108.438 238.677 107.999 238.677 107.472C238.677 107.041 238.798 106.66 239.04 106.328C239.286 105.997 239.619 105.737 240.04 105.548C240.464 105.359 240.944 105.264 241.481 105.264C242.237 105.264 242.83 105.43 243.261 105.761C243.695 106.093 244.004 106.53 244.186 107.074Z" fill="#16C9D1"/>
<defs>
<clipPath id="clip0_1954_24096">
<rect width="55" height="55" fill="white" transform="translate(0 38)"/>
</clipPath>
<clipPath id="clip1_1954_24096">
<rect width="40" height="40" fill="white" transform="translate(144)"/>
</clipPath>
</defs>
</svg>
