<svg width="135" height="43" viewBox="0 0 135 43" fill="none" xmlns="http://www.w3.org/2000/svg">
<path d="M128.997 2.01855H5.29147C2.85145 2.01855 0.873413 3.99659 0.873413 6.43661V37.363C0.873413 39.803 2.85145 41.7811 5.29147 41.7811H128.997C131.437 41.7811 133.415 39.803 133.415 37.363V6.43661C133.415 3.99659 131.437 2.01855 128.997 2.01855Z" fill="#202020"/>
<path fill-rule="evenodd" clip-rule="evenodd" d="M48.009 26.2994L47.0157 23.2812C46.9097 22.9719 46.7143 22.2434 46.4204 21.0994H46.387C46.2679 21.5918 46.0857 22.3167 45.827 23.2812L44.8523 26.2994H48.009ZM51.4468 31.1243H49.4416L48.3421 27.7253H44.5193L43.4739 31.1243H41.5206L45.3043 19.5527H47.6427L51.4468 31.1243Z" fill="white"/>
<path fill-rule="evenodd" clip-rule="evenodd" d="M59.2611 26.918C59.2611 26.109 59.0734 25.4354 58.7013 24.9083C58.2939 24.3629 57.7508 24.0846 57.0606 24.0846C56.5955 24.0846 56.1769 24.2383 55.7993 24.5405C55.4218 24.8442 55.1742 25.2413 55.0552 25.7356C54.9994 25.9644 54.9677 26.151 54.9677 26.2993V27.6904C54.9677 28.2962 55.1593 28.8088 55.537 29.2279C55.9128 29.6452 56.4076 29.8538 57.0122 29.8538C57.721 29.8538 58.2733 29.5848 58.6696 29.0466C59.064 28.5086 59.2611 27.7983 59.2611 26.918ZM61.1792 26.8502C61.1792 28.2688 60.7884 29.3926 60.009 30.2145C59.3114 30.9467 58.4482 31.3127 57.4121 31.3127C56.2941 31.3127 55.4943 30.921 55.005 30.1284H54.9659V34.5231H53.0853V25.5269C53.0853 24.6355 53.0611 23.7204 53.0164 22.7814H54.6701L54.7779 24.1048H54.8096C55.4383 23.1073 56.3946 22.6094 57.6725 22.6094C58.6753 22.6094 59.5104 22.9975 60.1746 23.7771C60.848 24.5551 61.1792 25.5818 61.1792 26.8502Z" fill="white"/>
<path fill-rule="evenodd" clip-rule="evenodd" d="M69.0143 26.918C69.0143 26.109 68.8246 25.4354 68.4525 24.9083C68.0452 24.3629 67.5038 24.0846 66.8137 24.0846C66.3468 24.0846 65.9282 24.2383 65.5505 24.5405C65.1729 24.8442 64.9255 25.2413 64.8066 25.7356C64.7525 25.9644 64.7191 26.151 64.7191 26.2993V27.6904C64.7191 28.2962 64.9107 28.8088 65.2864 29.2279C65.6641 29.6433 66.1571 29.8538 66.7615 29.8538C67.4722 29.8538 68.0247 29.5848 68.4209 29.0466C68.8172 28.5086 69.0143 27.7983 69.0143 26.918ZM70.9303 26.8502C70.9303 28.2688 70.5416 29.3926 69.7603 30.2145C69.0626 30.9467 68.1996 31.3127 67.1653 31.3127C66.0454 31.3127 65.2454 30.921 64.7582 30.1284H64.7191V34.5231H62.8383V25.5269C62.8383 24.6355 62.8141 23.7204 62.7695 22.7814H64.4232L64.5311 24.1048H64.5627C65.1915 23.1073 66.1439 22.6094 67.4256 22.6094C68.4264 22.6094 69.2617 22.9975 69.9295 23.7771C70.5992 24.5551 70.9303 25.5818 70.9303 26.8502Z" fill="white"/>
<path fill-rule="evenodd" clip-rule="evenodd" d="M81.8366 27.8803C81.8366 28.8649 81.4888 29.6686 80.7912 30.2817C80.0247 30.9589 78.9587 31.2957 77.5896 31.2957C76.3247 31.2957 75.3073 31.0559 74.5408 30.5764L74.976 29.0296C75.8058 29.522 76.7134 29.7691 77.6994 29.7691C78.4099 29.7691 78.9644 29.6099 79.3606 29.2951C79.7551 28.9838 79.9502 28.5593 79.9502 28.0322C79.9502 27.5617 79.7866 27.1665 79.4647 26.8498C79.1393 26.5257 78.598 26.2275 77.8427 25.9511C75.7834 25.1951 74.751 24.0896 74.751 22.6345C74.751 21.6827 75.1155 20.903 75.8337 20.2953C76.5535 19.6877 77.5153 19.3838 78.7133 19.3838C79.7828 19.3838 80.6741 19.5687 81.3846 19.9347L80.9138 21.4447C80.2479 21.0915 79.4983 20.9122 78.663 20.9122C77.9989 20.9122 77.4799 21.0731 77.1117 21.3935C76.7973 21.6791 76.6391 22.0305 76.6391 22.4423C76.6391 22.898 76.8195 23.277 77.1787 23.5735C77.4931 23.8498 78.0641 24.1464 78.89 24.4684C79.9021 24.8676 80.6423 25.3361 81.1204 25.8741C81.5966 26.4086 81.8366 27.0804 81.8366 27.8803Z" fill="white"/>
<path fill-rule="evenodd" clip-rule="evenodd" d="M88.0654 24.1723H85.9893V28.2229C85.9893 29.2516 86.3539 29.7695 87.0888 29.7695C87.4217 29.7695 87.7044 29.7385 87.9259 29.6818L87.976 31.0893C87.606 31.2265 87.1148 31.2979 86.5121 31.2979C85.768 31.2979 85.1858 31.0747 84.7671 30.6243C84.3486 30.1778 84.1383 29.429 84.1383 28.3766V24.1705H82.9014V22.7795H84.1383V21.2511L85.9893 20.7021V22.7795H88.0654V24.1723Z" fill="white"/>
<path fill-rule="evenodd" clip-rule="evenodd" d="M95.4792 26.9446C95.4792 26.1741 95.3105 25.515 94.9757 24.9641C94.5807 24.2979 94.0152 23.9667 93.2809 23.9667C92.5253 23.9667 91.9528 24.2997 91.5561 24.9641C91.2176 25.515 91.048 26.185 91.048 26.9813C91.048 27.7481 91.2176 28.409 91.5561 28.9598C91.9598 29.6243 92.5325 29.9573 93.2676 29.9573C93.9842 29.9573 94.5514 29.6168 94.9588 28.9397C95.3026 28.3796 95.4792 27.7133 95.4792 26.9446ZM97.4346 26.8842C97.4346 28.1655 97.0627 29.2178 96.3142 30.0415C95.5349 30.889 94.503 31.3136 93.2084 31.3136C91.9634 31.3136 90.9737 30.9073 90.2376 30.0946C89.4972 29.2818 89.1305 28.2587 89.1305 27.0215C89.1305 25.7293 89.5096 24.6712 90.2687 23.8494C91.0293 23.0222 92.0562 22.6104 93.3481 22.6104C94.5922 22.6104 95.595 23.0167 96.3523 23.8294C97.0716 24.6183 97.4346 25.6359 97.4346 26.8842Z" fill="white"/>
<path fill-rule="evenodd" clip-rule="evenodd" d="M103.558 24.4115C103.369 24.3767 103.173 24.3603 102.965 24.3603C102.299 24.3603 101.79 24.6055 101.426 25.0978C101.116 25.5335 100.958 26.0826 100.958 26.7451V31.1234H99.075L99.0937 25.4091C99.0937 24.45 99.068 23.5714 99.0229 22.7808H100.66L100.729 24.3767H100.785C100.98 23.8294 101.295 23.3866 101.726 23.0571C102.143 22.7587 102.596 22.6123 103.088 22.6123C103.261 22.6123 103.419 22.6214 103.558 22.6433V24.4115Z" fill="white"/>
<path fill-rule="evenodd" clip-rule="evenodd" d="M44.0343 10.6985H42.9925V14.9375H44.0585C44.4695 14.9375 44.7932 14.91 45.0221 14.8552C45.2508 14.7984 45.4463 14.7288 45.6005 14.641C45.753 14.5549 45.8925 14.4524 46.0173 14.3262C46.4264 13.918 46.6311 13.4037 46.6311 12.7796C46.6311 12.1664 46.4209 11.6667 46.0042 11.2805C45.8479 11.1359 45.6713 11.0206 45.4685 10.9273C45.2677 10.8339 45.0796 10.7717 44.8993 10.7424C44.7169 10.7131 44.4304 10.6985 44.0343 10.6985ZM42.1647 15.6642V9.97363H44.1198C44.9085 9.97363 45.5318 10.0871 45.9912 10.3196C46.4507 10.5539 46.8115 10.8943 47.087 11.3464C47.3548 11.8003 47.4906 12.2909 47.4906 12.8235C47.4906 13.2042 47.4143 13.5684 47.2654 13.918C47.1167 14.2658 46.9064 14.5715 46.6311 14.8368C46.3466 15.1077 46.0173 15.3127 45.6452 15.4537C45.4276 15.5397 45.2286 15.5946 45.0443 15.6221C44.8602 15.6514 44.5141 15.6642 43.9971 15.6642H42.1647Z" fill="white"/>
<path fill-rule="evenodd" clip-rule="evenodd" d="M110.187 26.0761C110.2 25.5252 110.073 25.0512 109.82 24.6502C109.495 24.1341 108.991 23.8779 108.319 23.8779C107.703 23.8779 107.203 24.1323 106.818 24.6338C106.505 25.0366 106.319 25.5142 106.264 26.0743H110.187V26.0761ZM111.983 26.5576C111.983 26.8869 111.96 27.1707 111.915 27.3994H106.264C106.282 28.2213 106.557 28.8545 107.082 29.2865C107.558 29.6746 108.174 29.8686 108.93 29.8686C109.765 29.8686 110.531 29.7386 111.217 29.4732L111.513 30.7635C110.707 31.106 109.761 31.278 108.671 31.278C107.356 31.278 106.323 30.8972 105.574 30.1358C104.82 29.3762 104.448 28.3531 104.448 27.0718C104.448 25.8126 104.798 24.7656 105.497 23.9311C106.227 23.0397 107.215 22.5947 108.457 22.5947C109.682 22.5947 110.608 23.0397 111.232 23.9311C111.732 24.6394 111.983 25.5142 111.983 26.5576Z" fill="white"/>
<path fill-rule="evenodd" clip-rule="evenodd" d="M48.4421 15.6753H49.1973V11.9194H48.4421V15.6753ZM48.816 10.3398C48.9406 10.3398 49.0485 10.3838 49.1342 10.4698C49.2234 10.5522 49.268 10.6583 49.268 10.7773C49.268 10.8981 49.2234 11.0025 49.1342 11.0866C49.0485 11.1745 48.9406 11.2203 48.816 11.2203C48.7007 11.2203 48.5966 11.1745 48.5091 11.0866C48.4197 10.9988 48.3751 10.8944 48.3751 10.7773C48.3751 10.6657 48.4197 10.5613 48.5091 10.4735C48.5966 10.3856 48.7007 10.3398 48.816 10.3398Z" fill="white"/>
<path fill-rule="evenodd" clip-rule="evenodd" d="M50.1025 15.4039V14.6041C50.3128 14.7541 50.5305 14.8694 50.7574 14.9628C50.9787 15.0561 51.163 15.0983 51.3155 15.0983C51.4736 15.0983 51.6131 15.0616 51.7248 14.9847C51.8382 14.9079 51.894 14.8182 51.894 14.7102C51.894 14.6041 51.855 14.5125 51.7824 14.4394C51.7098 14.3697 51.5517 14.2636 51.308 14.1282C50.8244 13.8591 50.5045 13.6322 50.3537 13.4436C50.2031 13.2533 50.1287 13.0483 50.1287 12.825C50.1287 12.5394 50.2403 12.3015 50.4672 12.1185C50.6959 11.9354 50.9936 11.8457 51.3508 11.8457C51.7248 11.8457 52.1061 11.9482 52.5005 12.1588V12.8908C52.0521 12.6236 51.6857 12.49 51.3992 12.49C51.2522 12.49 51.1369 12.5211 51.0457 12.5816C50.9565 12.6438 50.9119 12.7243 50.9119 12.825C50.9119 12.9147 50.9508 12.9988 51.0327 13.0775C51.1146 13.1544 51.2579 13.2496 51.4607 13.3613L51.7321 13.5113C52.3702 13.8646 52.6884 14.2563 52.6884 14.6846C52.6884 14.9939 52.5638 15.2465 52.3182 15.4424C52.0763 15.64 51.7619 15.7425 51.3768 15.7425C51.1481 15.7425 50.9471 15.7169 50.7686 15.6711C50.5937 15.6199 50.3723 15.532 50.1025 15.4039Z" fill="white"/>
<path fill-rule="evenodd" clip-rule="evenodd" d="M54.8127 12.6127H54.2788V14.9244C54.5113 15.0397 54.7532 15.0983 55.0062 15.0983C55.3615 15.0983 55.648 14.9793 55.8711 14.7359C56.0962 14.4925 56.2135 14.1813 56.2135 13.8006C56.2135 13.5572 56.1595 13.3394 56.0536 13.1526C55.9437 12.9641 55.7986 12.8269 55.6182 12.7408C55.434 12.6566 55.1625 12.6127 54.8127 12.6127ZM53.5068 17.5894V11.9189H54.8294C55.5066 11.9189 56.0312 12.0855 56.407 12.4205C56.7883 12.75 56.9743 13.213 56.9743 13.8078C56.9743 14.3734 56.7957 14.8347 56.4423 15.1971C56.0889 15.5577 55.6331 15.7407 55.0843 15.7407C54.8444 15.7407 54.5728 15.6877 54.2788 15.5797V17.5894H53.5068Z" fill="white"/>
<path fill-rule="evenodd" clip-rule="evenodd" d="M59.5888 12.5802C59.2279 12.5802 58.9304 12.6955 58.6977 12.9316C58.4653 13.1659 58.348 13.4624 58.348 13.8285C58.348 14.1854 58.4653 14.4764 58.7033 14.7052C58.9414 14.9322 59.2465 15.0493 59.6242 15.0493C59.9944 15.0493 60.2956 14.9304 60.5338 14.7016C60.7701 14.471 60.8855 14.1763 60.8855 13.8175C60.8855 13.4606 60.7644 13.1659 60.519 12.9316C60.2697 12.6955 59.9608 12.5802 59.5888 12.5802ZM59.6278 11.9121C60.2119 11.9121 60.6957 12.0951 61.0788 12.4667C61.462 12.8365 61.6518 13.2995 61.6518 13.8541C61.6518 14.3959 61.4602 14.8443 61.0714 15.2067C60.6807 15.56 60.1877 15.7431 59.5982 15.7431C59.0233 15.7431 58.5452 15.5582 58.1601 15.1957C57.775 14.8297 57.5872 14.3757 57.5872 13.8358C57.5872 13.2849 57.777 12.8254 58.1656 12.4631C58.5545 12.0933 59.0457 11.9121 59.6278 11.9121Z" fill="white"/>
<path fill-rule="evenodd" clip-rule="evenodd" d="M63.248 11.918V12.3957C63.5865 12.0314 63.9697 11.8447 64.3939 11.8447C64.6338 11.8447 64.8533 11.9052 65.0618 12.0296C65.2644 12.1467 65.4208 12.3152 65.5287 12.5238C65.6309 12.7361 65.6886 13.0692 65.6886 13.5268V15.6737H64.9296V13.5341C64.9296 13.1516 64.8738 12.8752 64.7547 12.7141C64.6338 12.5476 64.4366 12.4652 64.1538 12.4652C63.8005 12.4652 63.4972 12.6427 63.248 12.9924V15.6737H62.4779V11.918H63.248Z" fill="white"/>
<path fill-rule="evenodd" clip-rule="evenodd" d="M66.754 15.6733H67.5074V11.9174H66.754V15.6733ZM67.1279 10.3379C67.2525 10.3379 67.3586 10.3818 67.4498 10.4679C67.5372 10.5502 67.5799 10.6564 67.5799 10.7753C67.5799 10.8962 67.5372 11.0005 67.4498 11.0846C67.3586 11.1726 67.2525 11.2183 67.1279 11.2183C67.0126 11.2183 66.9102 11.1726 66.821 11.0846C66.7316 10.9968 66.689 10.8924 66.689 10.7753C66.689 10.6637 66.7316 10.5594 66.821 10.4715C66.9102 10.3837 67.0126 10.3379 67.1279 10.3379Z" fill="white"/>
<path fill-rule="evenodd" clip-rule="evenodd" d="M69.3237 12.8984V14.9301C69.5821 15.007 69.8426 15.0472 70.1179 15.0472C70.449 15.0472 70.7245 14.9282 70.9347 14.6939C71.1448 14.4615 71.2527 14.1595 71.2527 13.7916C71.2527 13.42 71.1522 13.1162 70.9569 12.8819C70.7579 12.6476 70.5011 12.5323 70.183 12.5323C69.9022 12.5323 69.6119 12.6531 69.3237 12.8984ZM68.5703 9.97168H69.3237V12.1882C69.651 11.9539 69.9971 11.8386 70.369 11.8386C70.8508 11.8386 71.2489 12.0198 71.5541 12.3767C71.861 12.7355 72.0154 13.1967 72.0154 13.7605C72.0154 14.3645 71.8349 14.844 71.4648 15.2046C71.1002 15.5597 70.609 15.7409 69.9933 15.7409C69.7497 15.7409 69.4911 15.7135 69.2158 15.6622C68.946 15.6092 68.7303 15.5432 68.5703 15.4664V9.97168Z" fill="white"/>
<path fill-rule="evenodd" clip-rule="evenodd" d="M72.8645 15.6733H73.6197V9.97363H72.8645V15.6733Z" fill="white"/>
<path fill-rule="evenodd" clip-rule="evenodd" d="M75.2968 13.4153H77.2147C77.1961 13.1206 77.1087 12.8918 76.9487 12.7307C76.7887 12.5697 76.5728 12.4892 76.3014 12.4892C76.0297 12.4892 75.8047 12.5697 75.6354 12.7307C75.4624 12.8918 75.3471 13.1206 75.2968 13.4153ZM77.9644 13.8601H75.2783C75.2986 14.2188 75.4196 14.5062 75.6446 14.7185C75.8735 14.929 76.1637 15.037 76.519 15.037C77.0175 15.037 77.4788 14.8851 77.8956 14.5793V15.306C77.663 15.4579 77.4324 15.5677 77.2053 15.6318C76.9766 15.6978 76.7124 15.7325 76.4056 15.7325C75.9814 15.7325 75.6446 15.6446 75.3842 15.4726C75.1219 15.3023 74.9154 15.0699 74.7611 14.7807C74.603 14.4915 74.5248 14.1548 74.5248 13.774C74.5248 13.2048 74.6904 12.7398 75.0196 12.3848C75.3451 12.0223 75.7749 11.8467 76.3014 11.8467C76.8073 11.8467 77.2073 12.0169 77.5087 12.3665C77.8137 12.7161 77.9644 13.181 77.9644 13.7648V13.8601Z" fill="white"/>
<path fill-rule="evenodd" clip-rule="evenodd" d="M81.726 13.4153H83.6457C83.6253 13.1206 83.5398 12.8918 83.3779 12.7307C83.218 12.5697 83.0022 12.4892 82.7305 12.4892C82.4589 12.4892 82.2357 12.5697 82.0646 12.7307C81.8934 12.8918 81.7763 13.1206 81.726 13.4153ZM84.3955 13.8601H81.7075C81.7297 14.2188 81.8488 14.5062 82.074 14.7185C82.3045 14.929 82.5949 15.037 82.9482 15.037C83.4486 15.037 83.9081 14.8851 84.3248 14.5793V15.306C84.0922 15.4579 83.8615 15.5677 83.6346 15.6318C83.4058 15.6978 83.1417 15.7325 82.8346 15.7325C82.4143 15.7325 82.074 15.6446 81.8154 15.4726C81.5511 15.3023 81.3466 15.0699 81.1903 14.7807C81.0322 14.4915 80.9559 14.1548 80.9559 13.774C80.9559 13.2048 81.1196 12.7398 81.4488 12.3848C81.7763 12.0223 82.206 11.8467 82.7305 11.8467C83.2366 11.8467 83.6383 12.0169 83.9397 12.3665C84.2448 12.7161 84.3955 13.181 84.3955 13.7648V13.8601Z" fill="white"/>
<path fill-rule="evenodd" clip-rule="evenodd" d="M85.9683 11.918V12.3957C86.3051 12.0314 86.6882 11.8447 87.1142 11.8447C87.3524 11.8447 87.5719 11.9052 87.7802 12.0296C87.9847 12.1467 88.1411 12.3152 88.2472 12.5238C88.3513 12.7361 88.4071 13.0692 88.4071 13.5268V15.6737H87.6501V13.5341C87.6501 13.1516 87.5923 12.8752 87.4732 12.7141C87.3524 12.5476 87.1551 12.4652 86.8743 12.4652C86.519 12.4652 86.2176 12.6427 85.9683 12.9924V15.6737H85.1963V11.918H85.9683Z" fill="white"/>
<path fill-rule="evenodd" clip-rule="evenodd" d="M92.4044 13.4153H94.3219C94.3032 13.1206 94.2158 12.8918 94.0541 12.7307C93.8959 12.5697 93.6803 12.4892 93.4047 12.4892C93.1369 12.4892 92.9116 12.5697 92.7428 12.7307C92.5697 12.8918 92.4539 13.1206 92.4044 13.4153ZM95.0711 13.8601H92.385C92.4062 14.2188 92.5263 14.5062 92.7516 14.7185C92.9805 14.929 93.2713 15.037 93.6246 15.037C94.1248 15.037 94.5842 14.8851 95.0005 14.5793V15.306C94.768 15.4579 94.5391 15.5677 94.3129 15.6318C94.0842 15.6978 93.8182 15.7325 93.5124 15.7325C93.0884 15.7325 92.75 15.6446 92.4909 15.4726C92.2295 15.3023 92.0227 15.0699 91.8663 14.7807C91.7098 14.4915 91.6321 14.1548 91.6321 13.774C91.6321 13.2048 91.7956 12.7398 92.127 12.3848C92.4521 12.0223 92.8825 11.8467 93.4047 11.8467C93.9146 11.8467 94.3147 12.0169 94.6161 12.3665C94.921 12.7161 95.0711 13.181 95.0711 13.7648V13.8601Z" fill="white"/>
<path fill-rule="evenodd" clip-rule="evenodd" d="M95.9033 15.6733H96.657V9.97363H95.9033V15.6733Z" fill="white"/>
<path fill-rule="evenodd" clip-rule="evenodd" d="M30.7313 27.0199C30.2048 28.1862 29.9529 28.7067 29.2761 29.737C28.3305 31.1764 26.9981 32.9684 25.3475 32.9842C23.8799 32.9984 23.5034 32.0292 21.5118 32.0406C19.521 32.0512 19.1058 33.002 17.6389 32.9878C15.9874 32.9719 14.7247 31.354 13.7793 29.9145C11.1355 25.8906 10.8598 21.1677 12.4892 18.6574C13.6485 16.8734 15.4758 15.828 17.1953 15.828C18.9449 15.828 20.045 16.7885 21.4915 16.7885C22.8955 16.7885 23.7508 15.8271 25.7734 15.8271C27.302 15.8271 28.9226 16.6587 30.0775 18.099C26.2947 20.1728 26.9097 25.5752 30.7313 27.0199Z" fill="white"/>
<path fill-rule="evenodd" clip-rule="evenodd" d="M24.2385 14.2189C24.9728 13.2752 25.5313 11.9427 25.3288 10.5811C24.1289 10.6641 22.7241 11.4275 21.9031 12.4234C21.16 13.3273 20.545 14.6686 20.7845 15.9711C22.0948 16.0116 23.4503 15.2297 24.2385 14.2189Z" fill="white"/>
</svg>
