<svg width="138" height="44" viewBox="0 0 138 44" fill="none" xmlns="http://www.w3.org/2000/svg">
<g clip-path="url(#clip0_504_25016)">
<path d="M132.944 1.35059H5.02035C2.49714 1.35059 0.45166 3.39606 0.45166 5.91928V37.9001C0.45166 40.4234 2.49714 42.4689 5.02035 42.4689H132.944C135.467 42.4689 137.512 40.4234 137.512 37.9001V5.91928C137.512 3.39606 135.467 1.35059 132.944 1.35059Z" fill="#202020"/>
<path fill-rule="evenodd" clip-rule="evenodd" d="M13.1243 13.4278C12.8932 13.6717 12.7579 14.0509 12.7579 14.5416V32.0662C12.7579 32.5578 12.8932 32.9361 13.1243 33.18L13.1819 33.2376L23.0001 23.4204V23.3044V23.1883L13.1819 13.3711L13.1243 13.4278Z" fill="#00CFFF"/>
<path fill-rule="evenodd" clip-rule="evenodd" d="M26.2703 26.6931L22.9983 23.4191V23.3031V23.187L26.2713 19.9141L26.3453 19.956L30.2224 22.1591C31.3298 22.7886 31.3298 23.8184 30.2224 24.447L26.3453 26.6501L26.2703 26.6931Z" fill="#FFCF00"/>
<path fill-rule="evenodd" clip-rule="evenodd" d="M26.3456 26.6507L22.9985 23.3037L13.1228 33.1803C13.4883 33.5659 14.0905 33.6134 14.7694 33.2278L26.3456 26.6507Z" fill="#FF003E"/>
<path fill-rule="evenodd" clip-rule="evenodd" d="M26.3456 19.9563L14.7694 13.3792C14.0905 12.9927 13.4883 13.0411 13.1228 13.4267L22.9985 23.3034L26.3456 19.9563Z" fill="#00F665"/>
<path fill-rule="evenodd" clip-rule="evenodd" d="M102.62 31.7797H104.413V19.8472H102.62V31.7797ZM118.44 24.1421L116.464 29.297H116.37L114.299 24.1421H112.413L115.521 31.3985L113.732 35.4078H115.521L120.325 24.1421H118.44ZM108.552 30.4425C107.989 30.4425 107.141 30.1572 107.141 29.3927C107.141 28.4368 108.178 28.1515 109.024 28.1515C109.778 28.1515 110.153 28.341 110.626 28.5326C110.438 29.6781 109.495 30.4425 108.552 30.4425ZM108.741 23.8546C107.424 23.8546 106.106 24.4274 105.633 25.6687L107.235 26.3373C107.613 25.6687 108.178 25.4771 108.835 25.4771C109.778 25.4771 110.626 26.05 110.719 27.0058V27.1017C110.438 26.9102 109.684 26.6227 108.93 26.6227C107.235 26.6227 105.538 27.5787 105.538 29.297C105.538 30.9215 106.952 31.9693 108.458 31.9693C109.684 31.9693 110.249 31.3985 110.719 30.8258H110.813V31.7797H112.508V27.1975C112.319 25.0959 110.719 23.8546 108.741 23.8546ZM97.9112 25.5729H95.371V21.4676H97.9112C99.2306 21.4676 99.9845 22.6133 99.9845 23.4735C99.8895 24.5232 99.1356 25.5729 97.9112 25.5729ZM97.8171 19.8432H93.5791V31.7797H95.371V27.2933H97.8171C99.7953 27.2933 101.679 25.8583 101.679 23.5672C101.679 21.2761 99.7953 19.8432 97.8171 19.8432ZM74.8401 30.4425C73.6159 30.4425 72.5808 29.3927 72.5808 27.9619C72.5808 26.5289 73.6159 25.4771 74.8401 25.4771C76.0645 25.4771 77.0073 26.5289 77.0073 27.9619C77.0073 29.3927 76.0645 30.4425 74.8401 30.4425ZM76.9128 24.8106C76.4424 24.3316 75.6885 23.8546 74.7457 23.8546C72.7696 23.8546 70.8861 25.6687 70.8861 27.9619C70.8861 30.2529 72.6752 31.9693 74.7457 31.9693C75.6885 31.9693 76.4424 31.4922 76.8182 31.0174H76.9128V31.588C76.9128 33.1168 76.0645 33.977 74.7457 33.977C73.7105 33.977 72.9566 33.2126 72.7696 32.544L71.262 33.2126C71.7324 34.2623 72.8622 35.5995 74.8401 35.5995C76.9128 35.5995 78.6073 34.3581 78.6073 31.3985V24.1421H76.9128V24.8106ZM79.7371 31.7797H81.5282V19.8472H79.7371V31.7797ZM84.1636 27.866C84.1636 26.3373 85.3879 25.4771 86.2361 25.4771C86.8936 25.4771 87.5529 25.8583 87.7419 26.3373L84.1636 27.866ZM89.6254 26.5289C89.2495 25.5729 88.3068 23.9504 86.2361 23.9504C84.1636 23.9504 82.4691 25.5729 82.4691 28.0577C82.4691 30.3489 84.1636 32.1608 86.4251 32.1608C88.2142 32.1608 89.344 31.0174 89.7178 30.3489L88.4012 29.3927C87.9308 30.0614 87.3639 30.5383 86.4251 30.5383C85.4824 30.5383 84.9175 30.1572 84.445 29.297L89.8124 27.0058L89.6254 26.5289ZM46.872 25.1898V26.9102H50.9206C50.826 27.866 50.4501 28.6284 49.9797 29.1054C49.4128 29.6781 48.4741 30.3489 46.872 30.3489C44.329 30.3489 42.4475 28.341 42.4475 25.7645C42.4475 23.186 44.4234 21.1823 46.872 21.1823C48.1906 21.1823 49.2279 21.7551 49.9797 22.4217L51.204 21.1823C50.1667 20.2265 48.8499 19.4619 46.9664 19.4619C43.5751 19.4619 40.6562 22.3258 40.6562 25.7645C40.6562 29.2012 43.5751 32.0651 46.9664 32.0651C48.8499 32.0651 50.1667 31.4922 51.2985 30.2529C52.4262 29.1054 52.8041 27.4828 52.8041 26.2416C52.8041 25.8583 52.8041 25.4771 52.7097 25.1898H46.872ZM57.325 30.4425C56.1008 30.4425 55.0657 29.3927 55.0657 27.9619C55.0657 26.5289 56.1008 25.4771 57.325 25.4771C58.5494 25.4771 59.5846 26.4331 59.5846 27.9619C59.5846 29.3927 58.5494 30.4425 57.325 30.4425ZM57.325 23.9504C55.0657 23.9504 53.2746 25.6687 53.2746 28.0577C53.2746 30.3489 55.0657 32.1608 57.325 32.1608C59.5846 32.1608 61.3757 30.4425 61.3757 28.0577C61.3757 25.5729 59.5846 23.9504 57.325 23.9504ZM66.0816 30.4425C64.8574 30.4425 63.8222 29.3927 63.8222 27.9619C63.8222 26.5289 64.8574 25.4771 66.0816 25.4771C67.3079 25.4771 68.3411 26.4331 68.3411 27.9619C68.3411 29.3927 67.3079 30.4425 66.0816 30.4425ZM66.0816 23.9504C63.8222 23.9504 62.0331 25.6687 62.0331 28.0577C62.0331 30.3489 63.8222 32.1608 66.0816 32.1608C68.3411 32.1608 70.1322 30.4425 70.1322 28.0577C70.1322 25.5729 68.3411 23.9504 66.0816 23.9504Z" fill="white"/>
<path fill-rule="evenodd" clip-rule="evenodd" d="M42.1604 11.339V15.324H42.7774C43.274 15.324 43.654 15.167 43.9213 14.8551C44.1866 14.5351 44.3193 14.0846 44.3234 13.4976V13.1857C44.3234 12.5885 44.1987 12.1299 43.9435 11.8119C43.6841 11.498 43.3082 11.339 42.8217 11.339H42.1604ZM41.2095 16.0904V10.5645H42.8217C43.3022 10.5645 43.7284 10.6725 44.1043 10.8906C44.4741 11.1087 44.7676 11.4185 44.9686 11.816C45.1757 12.2195 45.2783 12.6741 45.2783 13.1918V13.469C45.2783 13.9929 45.1757 14.4515 44.9666 14.8511C44.7636 15.2465 44.4681 15.5522 44.0882 15.7683C43.7103 15.9823 43.274 16.0904 42.7815 16.0904H41.2095Z" fill="white"/>
<path fill-rule="evenodd" clip-rule="evenodd" d="M46.2769 16.0894H47.2196V10.5635H46.2769V16.0894Z" fill="white"/>
<path fill-rule="evenodd" clip-rule="evenodd" d="M51.2344 14.6668C51.2344 14.4243 51.15 14.2368 50.981 14.1084C50.8122 13.9739 50.5107 13.8414 50.0705 13.7068C49.6281 13.5723 49.2785 13.4255 49.0191 13.2624C48.5226 12.9424 48.2752 12.5307 48.2752 12.0211C48.2752 11.5748 48.4542 11.2098 48.8141 10.9204C49.1719 10.633 49.6383 10.4883 50.2052 10.4883C50.5891 10.4883 50.9269 10.5596 51.2223 10.7023C51.5198 10.843 51.753 11.0448 51.9239 11.3098C52.0927 11.5665 52.1771 11.858 52.1771 12.176H51.2344C51.2344 11.8886 51.1419 11.6624 50.965 11.4993C50.7841 11.3363 50.5288 11.2547 50.1992 11.2547C49.8895 11.2547 49.6524 11.3219 49.4794 11.4565C49.3086 11.591 49.2242 11.7785 49.2242 12.017C49.2242 12.2209 49.3166 12.3901 49.5016 12.5246C49.6844 12.6632 49.9901 12.7916 50.4143 12.9221C50.8383 13.0484 51.1801 13.1912 51.4374 13.3562C51.6946 13.5213 51.8796 13.7048 52.0023 13.9188C52.1188 14.1288 52.1811 14.3754 52.1811 14.6607C52.1811 15.1214 52.0083 15.4862 51.6605 15.7595C51.3087 16.0306 50.8383 16.165 50.2413 16.165C49.8494 16.165 49.4854 16.0917 49.1538 15.9449C48.8241 15.7962 48.5689 15.5922 48.3819 15.3314C48.1989 15.0704 48.1064 14.7688 48.1064 14.4202H49.0532C49.0532 14.7341 49.1578 14.9767 49.3589 15.1479C49.568 15.3212 49.8574 15.4068 50.2413 15.4068C50.573 15.4068 50.8182 15.3395 50.9852 15.205C51.152 15.0684 51.2344 14.8891 51.2344 14.6668Z" fill="white"/>
<path fill-rule="evenodd" clip-rule="evenodd" d="M53.9585 13.2673H55.0923C55.4299 13.2673 55.6873 13.1857 55.8641 13.0267C56.0451 12.8657 56.1335 12.6313 56.1335 12.3296C56.1335 12.032 56.0411 11.7915 55.8621 11.6142C55.6812 11.4389 55.4339 11.3451 55.1224 11.339H53.9585V13.2673ZM53.9585 14.0398V16.0904H53.0076V10.5645H55.0923C55.7033 10.5645 56.1858 10.7255 56.5476 11.0475C56.9054 11.3675 57.0843 11.7935 57.0843 12.3235C57.0843 12.8657 56.9095 13.2877 56.5577 13.5873C56.2059 13.893 55.7153 14.0398 55.0861 14.0398H53.9585Z" fill="white"/>
<path fill-rule="evenodd" clip-rule="evenodd" d="M61.3117 13.1809C61.3117 12.5694 61.1951 12.1006 60.9679 11.7765C60.7408 11.4483 60.4191 11.2832 59.9989 11.2832C59.591 11.2832 59.2653 11.4462 59.0361 11.7745C58.807 12.0986 58.6863 12.5572 58.6823 13.1504V13.4745C58.6823 14.0778 58.8008 14.5487 59.0321 14.8789C59.2653 15.209 59.593 15.3762 60.007 15.3762C60.4251 15.3762 60.7488 15.2131 60.9739 14.891C61.1971 14.5669 61.3117 14.0921 61.3117 13.4745V13.1809ZM62.2605 13.4745C62.2605 14.0105 62.1681 14.4895 61.981 14.8972C61.7942 15.3049 61.5308 15.6187 61.187 15.8389C60.8473 16.057 60.4513 16.165 60.007 16.165C59.5647 16.165 59.1708 16.057 58.825 15.8389C58.4793 15.6187 58.2119 15.3069 58.021 14.9013C57.836 14.4977 57.7416 14.0288 57.7375 13.501V13.1911C57.7375 12.6489 57.834 12.176 58.0168 11.7622C58.2078 11.3525 58.4752 11.0345 58.817 10.8164C59.1608 10.5963 59.5547 10.4883 59.9989 10.4883C60.4392 10.4883 60.8372 10.5943 61.181 10.8124C61.5208 11.0284 61.786 11.3403 61.973 11.7459C62.162 12.1515 62.2565 12.6265 62.2605 13.1625V13.4745Z" fill="white"/>
<path fill-rule="evenodd" clip-rule="evenodd" d="M67.528 16.0904H66.5771L64.1467 12.1686V16.0904H63.204V10.5645H64.1467L66.5851 14.5005V10.5645H67.528V16.0904Z" fill="white"/>
<path fill-rule="evenodd" clip-rule="evenodd" d="M68.7004 16.0894H69.6454V10.5635H68.7004V16.0894Z" fill="white"/>
<path fill-rule="evenodd" clip-rule="evenodd" d="M71.7566 13.5975V15.324H72.806C73.1075 15.324 73.3367 15.2527 73.5055 15.0998C73.6704 14.951 73.7528 14.7431 73.7528 14.4801C73.7528 13.9012 73.4673 13.6098 72.8864 13.5975H71.7566ZM71.7566 12.8902H72.6854C72.9768 12.8902 73.21 12.823 73.3769 12.6884C73.5437 12.5518 73.6261 12.3623 73.6261 12.1116C73.6261 11.8405 73.5497 11.6408 73.391 11.5205C73.2382 11.4003 73.0029 11.3411 72.6793 11.3411H71.7566V12.8902ZM70.8079 16.0924V10.5645H72.6793C73.2944 10.5645 73.7648 10.6888 74.0825 10.9396C74.4041 11.1903 74.5669 11.5633 74.5669 12.0586C74.5669 12.3114 74.4985 12.5397 74.368 12.7434C74.2293 12.9453 74.0342 13.1022 73.7749 13.2164C74.0663 13.2959 74.2976 13.4467 74.4584 13.6709C74.6192 13.8951 74.6996 14.1642 74.6996 14.4801C74.6996 14.9979 74.5348 15.3954 74.209 15.6766C73.8795 15.9497 73.407 16.0924 72.8 16.0924H70.8079Z" fill="white"/>
<path fill-rule="evenodd" clip-rule="evenodd" d="M76.592 15.324H79.0645V16.0904H75.6431V10.5645H76.592V15.324Z" fill="white"/>
<path fill-rule="evenodd" clip-rule="evenodd" d="M82.9776 13.624H80.7403V15.324H83.3534V16.0904H79.7933V10.5645H83.3294V11.339H80.7403V12.8657H82.9776V13.624Z" fill="white"/>
<path fill-rule="evenodd" clip-rule="evenodd" d="M89.2224 13.624H86.9831V15.324H89.5983V16.0904H86.0361V10.5645H89.5742V11.339H86.9831V12.8657H89.2224V13.624Z" fill="white"/>
<path fill-rule="evenodd" clip-rule="evenodd" d="M94.6956 16.0904H93.7444L91.3161 12.1686V16.0904H90.3733V10.5645H91.3161L93.7526 14.5005V10.5645H94.6956V16.0904Z" fill="white"/>
</g>
<defs>
<clipPath id="clip0_504_25016">
<rect x="0.451782" width="137.325" height="43.2034" rx="6.21038" fill="white"/>
</clipPath>
</defs>
</svg>
